<?xml version="1.0" encoding="UTF-8"?>
<svg fill="none" stroke-width="1.5" viewBox="0 0 24 24" xmlns="http://www.w3.org/2000/svg">
<path d="M7.4 7H4.6C4.26863 7 4 7.26863 4 7.6V16.4C4 16.7314 4.26863 17 4.6 17H7.4C7.73137 17 8 16.7314 8 16.4V7.6C8 7.26863 7.73137 7 7.4 7Z" stroke="currentColor" stroke-linecap="round" stroke-linejoin="round"/>
<path d="m19.4 7h-2.8c-0.3314 0-0.6 0.26863-0.6 0.6v8.8c0 0.3314 0.2686 0.6 0.6 0.6h2.8c0.3314 0 0.6-0.2686 0.6-0.6v-8.8c0-0.33137-0.2686-0.6-0.6-0.6z" stroke="currentColor" stroke-linecap="round" stroke-linejoin="round"/>
<path d="M1 14.4V9.6C1 9.26863 1.26863 9 1.6 9H3.4C3.73137 9 4 9.26863 4 9.6V14.4C4 14.7314 3.73137 15 3.4 15H1.6C1.26863 15 1 14.7314 1 14.4Z" stroke="currentColor" stroke-linecap="round" stroke-linejoin="round"/>
<path d="m23 14.4v-4.8c0-0.33137-0.2686-0.6-0.6-0.6h-1.8c-0.3314 0-0.6 0.26863-0.6 0.6v4.8c0 0.3314 0.2686 0.6 0.6 0.6h1.8c0.3314 0 0.6-0.2686 0.6-0.6z" stroke="currentColor" stroke-linecap="round" stroke-linejoin="round"/>
<path d="m8 12h8" stroke="currentColor" stroke-linecap="round" stroke-linejoin="round"/>
</svg>
